<svg width="256" height="256" viewBox="0 0 256 256" fill="none" xmlns="http://www.w3.org/2000/svg">
<path fill-rule="evenodd" clip-rule="evenodd" d="M141.284 156.577V68.5461C141.284 51.3698 127.36 37.4456 110.183 37.4456C93.007 37.4456 79.0828 51.3698 79.0828 68.5462V156.577C79.0828 173.754 93.007 187.678 110.183 187.678C127.36 187.678 141.284 173.754 141.284 156.577ZM110.183 23.118C85.0941 23.118 64.7552 43.4569 64.7552 68.5462V156.577C64.7552 181.667 85.0941 202.005 110.183 202.005C135.273 202.005 155.611 181.667 155.611 156.577V68.5461C155.611 43.4569 135.273 23.118 110.183 23.118Z" fill="#1E403B"/>
<path fill-rule="evenodd" clip-rule="evenodd" d="M176.494 188.301V100.27C176.494 83.0936 162.57 69.1694 145.394 69.1694C128.217 69.1694 114.293 83.0936 114.293 100.27V188.301C114.293 205.478 128.217 219.402 145.394 219.402C162.57 219.402 176.494 205.477 176.494 188.301ZM145.394 54.8419C120.305 54.8419 99.9657 75.1807 99.9657 100.27V188.301C99.9657 213.39 120.305 233.729 145.394 233.729C170.483 233.729 190.822 213.39 190.822 188.301V100.27C190.822 75.1807 170.483 54.8419 145.394 54.8419Z" fill="#1E403B"/>
<path d="M148.546 92.5275C152.792 93.6653 155.312 98.0299 154.174 102.276V102.276C153.037 106.522 148.672 109.042 144.426 107.905L112.017 99.2207C107.771 98.0829 105.251 93.7183 106.389 89.472V89.472C107.526 85.2258 111.891 82.7058 116.137 83.8436L148.546 92.5275Z" fill="#1E403B"/>
<path d="M145.372 158.983C149.618 160.12 152.138 164.485 151.001 168.731V168.731C149.863 172.978 145.498 175.497 141.252 174.36L109.288 165.795C105.042 164.657 102.522 160.293 103.66 156.046V156.046C104.798 151.8 109.162 149.28 113.409 150.418L145.372 158.983Z" fill="#1E403B"/>
<path d="M148.717 125.938C152.677 126.999 154.965 131.302 153.827 135.548V135.548C152.689 139.794 148.557 142.376 144.597 141.315L107.136 131.278C103.176 130.217 100.888 125.914 102.026 121.668V121.668C103.164 117.422 107.296 114.84 111.256 115.901L148.717 125.938Z" fill="#1E403B"/>
</svg>
